<?xml version="1.0" standalone="no"?>
<!DOCTYPE svg PUBLIC "-//W3C//DTD SVG 20010904//EN"
 "http://www.w3.org/TR/2001/REC-SVG-20010904/DTD/svg10.dtd">
<svg version="1.0" xmlns="http://www.w3.org/2000/svg"
 width="1200.000000pt" height="1500.000000pt" viewBox="0 0 1200.000000 1500.000000"
 preserveAspectRatio="xMidYMid meet">

<g transform="translate(0.000000,1500.000000) scale(0.100000,-0.100000)"
fill="#000000" stroke="none">
<path d="M5674 12035 c0 -88 2 -123 3 -77 2 46 2 118 0 160 -1 42 -3 5 -3 -83z"/>
<path d="M5674 11525 c0 -170 2 -242 3 -158 2 83 2 223 0 310 -1 87 -3 19 -3
-152z"/>
<path d="M3907 11610 c3 -11 9 -22 13 -25 5 -3 6 4 3 15 -3 11 -9 22 -13 25
-5 3 -6 -4 -3 -15z"/>
<path d="M3930 11564 c0 -3 6 -20 14 -37 8 -18 28 -65 45 -106 l31 -73 0 -512
c0 -281 3 -521 6 -532 6 -21 10 -22 322 -28 175 -3 372 -8 440 -11 l122 -6 0
642 0 642 -312 -6 c-172 -4 -372 -7 -445 -7 l-132 0 -3 -57 -3 -58 -39 78
c-35 70 -46 87 -46 71z m930 -606 c0 -288 3 -547 7 -577 l6 -54 -369 6 c-203
4 -384 7 -401 7 l-33 0 1 448 0 447 20 -44 c10 -24 27 -60 36 -80 75 -168 243
-494 293 -569 69 -104 95 -124 134 -99 58 38 145 284 216 612 29 128 24 127
-15 -5 -68 -234 -146 -396 -207 -430 -26 -14 -29 -13 -68 25 -81 78 -196 261
-366 581 -51 95 -54 105 -54 172 l0 72 238 2 c130 2 310 4 400 6 l162 3 0
-523z"/>
<path d="M5672 9780 c-2 -883 -5 -1028 -17 -1044 -14 -19 -15 -18 -15 13 0 19
4 30 10 26 15 -10 12 12 -5 28 -10 11 -13 25 -9 46 4 20 2 31 -5 31 -8 0 -11
-41 -11 -131 0 -71 4 -128 9 -125 4 3 16 0 25 -7 16 -12 17 -206 14 -3147 -4
-4077 -4 -3870 9 -3900 9 -19 12 946 11 3915 -1 2167 -4 4251 -7 4630 l-7 690
-2 -1025z"/>
<path d="M7296 10138 c-3 -7 -7 -35 -9 -63 -3 -27 -18 -77 -32 -109 -22 -50
-24 -63 -15 -82 9 -15 9 -27 2 -41 -19 -34 -51 -176 -61 -268 -6 -50 -18 -225
-26 -390 -8 -165 -24 -453 -35 -640 -33 -562 -46 -1017 -32 -1072 15 -55 63
-124 154 -222 l67 -72 94 93 c146 144 141 128 134 503 -4 171 -11 391 -17 490
-5 99 -17 317 -27 485 -10 187 -17 458 -18 700 l0 395 28 39 c15 21 27 45 27
53 0 16 54 127 81 165 11 14 19 31 19 37 0 17 -329 15 -334 -1z"/>
<path d="M4030 8982 l0 -619 88 -6 c48 -4 181 -14 295 -24 204 -17 209 -18
237 -45 17 -15 38 -28 47 -28 12 0 6 8 -17 23 -45 29 -32 31 120 19 63 -5 116
-9 117 -8 1 1 3 86 3 189 1 103 5 189 10 192 5 3 7 12 3 20 -3 9 1 15 11 15 9
0 16 5 16 11 0 5 -4 7 -10 4 -5 -3 -10 0 -11 7 0 7 -2 21 -4 31 -2 9 0 17 4
17 5 0 24 16 45 36 20 20 41 32 48 28 6 -4 8 -3 5 3 -4 6 28 39 71 74 42 34
99 81 125 103 41 34 54 40 90 38 76 -5 80 -9 39 -47 -34 -32 -38 -33 -51 -17
-12 16 -13 15 -9 -4 4 -15 -2 -26 -22 -37 -15 -9 -30 -14 -34 -10 -3 3 -6 0
-6 -9 0 -21 -200 -202 -200 -181 0 4 -5 0 -11 -10 -6 -11 -30 -27 -53 -38 -24
-11 -33 -19 -22 -19 20 0 20 0 0 -15 -10 -8 -14 -15 -8 -15 6 0 19 9 29 20 19
20 41 28 30 10 -13 -21 9 -9 58 33 29 24 69 57 91 73 38 28 39 28 31 5 -10
-34 25 -24 42 12 7 15 19 39 26 55 7 15 53 58 102 95 50 37 105 80 124 95 18
15 54 43 80 62 l46 36 3 82 3 82 -51 0 c-59 0 -50 6 -349 -234 -96 -76 -200
-154 -232 -171 l-57 -33 -6 46 c-3 24 -6 176 -6 337 l0 292 -102 7 c-57 3
-215 10 -353 16 -137 5 -289 12 -337 15 l-88 6 0 -619z m400 538 c140 -6 297
-13 348 -16 l92 -7 0 -323 0 -323 -37 -35 c-31 -29 -34 -36 -19 -36 18 0 18
-1 3 -18 -19 -21 -13 -32 17 -31 21 0 21 1 1 10 -18 8 -18 8 5 6 l25 -2 3
-194 2 -194 -62 7 c-35 3 -160 13 -278 21 -254 18 -443 34 -446 38 -6 6 -17
1085 -11 1099 4 11 18 14 54 12 26 -2 163 -8 303 -14z"/>
<path d="M4730 8581 c-15 -28 -13 -33 12 -29 13 2 24 11 27 23 3 17 2 18 -15
5 -16 -14 -17 -13 -11 3 9 23 0 22 -13 -2z"/>
<path d="M4756 8490 c18 -18 37 -31 44 -28 7 2 -7 16 -31 32 l-44 28 31 -32z"/>
<path d="M6497 9449 c3 -85 7 -156 10 -158 2 -3 11 2 20 11 27 28 11 254 -21
286 -12 13 -14 -5 -9 -139z"/>
<path d="M8660 9492 c0 -21 6 -85 14 -143 26 -187 36 -396 41 -846 5 -448 9
-532 26 -546 5 -4 7 -4 4 -1 -3 4 1 14 7 22 22 25 17 771 -5 1007 -23 237 -55
508 -63 529 -11 29 -24 17 -24 -22z"/>
<path d="M4996 8821 c-3 -4 7 -8 21 -9 15 -1 23 1 19 5 -9 10 -35 13 -40 4z"/>
<path d="M4969 8653 c-13 -16 -12 -17 4 -4 9 7 17 15 17 17 0 8 -8 3 -21 -13z"/>
<path d="M5637 8314 c-4 -4 -7 -14 -7 -23 0 -11 3 -12 11 -4 6 6 10 16 7 23
-2 6 -7 8 -11 4z"/>
<path d="M3940 7755 c0 -5 5 -17 10 -25 5 -8 10 -10 10 -5 0 6 -5 17 -10 25
-5 8 -10 11 -10 5z"/>
<path d="M3963 7698 c3 -7 22 -51 41 -98 l36 -85 0 -526 0 -526 48 -7 c26 -3
196 -26 377 -51 182 -24 358 -48 393 -53 l62 -9 0 629 0 628 -22 1 c-13 0
-211 19 -440 42 l-417 42 -3 -55 -3 -55 -32 68 c-18 37 -36 67 -39 67 -3 0 -4
-6 -1 -12z m525 -117 c205 -21 374 -40 377 -42 2 -3 5 -256 6 -564 l1 -560
-23 1 c-13 0 -189 22 -391 49 l-368 49 0 146 c0 80 -3 280 -5 445 l-5 300 20
-40 c24 -49 91 -195 122 -267 12 -29 53 -116 91 -193 127 -257 205 -368 245
-346 44 24 88 108 140 271 38 120 105 390 99 396 -3 3 -8 -10 -12 -28 -10 -46
-63 -204 -87 -258 -87 -200 -137 -239 -210 -162 -70 73 -196 285 -351 589 -53
104 -57 116 -57 182 0 61 2 71 18 71 9 0 185 -18 390 -39z"/>
<path d="M7193 2109 c-171 -82 -347 -104 -583 -75 -125 16 -280 44 -340 61
-23 7 -24 6 -9 -9 36 -38 320 -86 510 -86 101 0 146 5 221 24 102 26 260 89
279 112 15 18 18 19 -78 -27z"/>
<path d="M3355 2110 c3 -5 12 -7 20 -3 21 7 19 13 -6 13 -11 0 -18 -4 -14 -10z"/>
<path d="M3715 2020 c27 -12 43 -12 25 0 -8 5 -22 9 -30 9 -10 0 -8 -3 5 -9z"/>
<path d="M8610 1939 c-186 -115 -344 -194 -445 -220 -146 -39 -446 -25 -657
31 -40 11 -84 22 -98 25 l-25 7 23 -21 c77 -68 518 -116 699 -76 93 20 193 61
313 125 97 53 350 209 350 216 0 11 -25 -2 -160 -87z"/>
<path d="M3770 2000 c-8 -5 -10 -10 -5 -10 6 0 17 5 25 10 8 5 11 10 5 10 -5
0 -17 -5 -25 -10z"/>
<path d="M3830 1988 c14 -6 28 -10 33 -10 4 1 7 -3 7 -9 0 -6 7 -8 16 -5 9 3
21 3 27 -1 7 -4 21 -9 31 -10 11 -2 25 -8 32 -14 8 -6 19 -7 29 -2 12 7 2 12
-37 23 -29 7 -60 14 -68 15 -8 1 -28 7 -43 14 -36 14 -60 13 -27 -1z"/>
<path d="M4030 1930 c0 -7 6 -10 14 -7 7 3 23 -1 35 -9 12 -9 30 -13 41 -9 12
4 20 2 20 -5 0 -7 7 -10 15 -7 8 4 17 2 21 -4 3 -6 12 -8 19 -5 8 3 15 1 17
-3 2 -5 11 -5 22 -2 13 5 -9 14 -70 30 -135 35 -134 35 -134 21z"/>
<path d="M4255 1870 c-5 -8 -3 -11 6 -8 8 3 26 -1 42 -9 21 -10 32 -11 45 -3
15 10 14 11 -5 7 -12 -3 -23 -1 -25 3 -5 15 -55 22 -63 10z"/>
<path d="M4365 1841 c-3 -5 9 -9 26 -9 17 1 34 -3 37 -8 7 -9 28 -14 70 -17
12 0 22 -5 22 -10 0 -4 5 -5 10 -2 6 3 10 1 10 -6 0 -7 10 -9 25 -7 14 3 25 1
25 -5 0 -6 3 -8 6 -4 4 3 19 0 35 -8 15 -8 35 -12 44 -8 10 3 20 1 24 -5 4 -7
19 -13 34 -14 15 -1 27 -6 27 -11 0 -5 7 -6 16 -3 9 4 22 3 28 -2 13 -10 39
-18 258 -77 92 -24 175 -42 184 -38 13 5 15 3 9 -7 -6 -10 -2 -12 17 -8 13 2
30 -1 36 -9 7 -7 20 -13 28 -13 34 0 -15 30 -73 44 -32 8 -76 20 -98 26 -22 6
-56 15 -75 20 -19 5 -60 16 -90 24 -227 63 -324 87 -335 82 -8 -3 -15 0 -17 5
-2 6 -28 17 -58 24 -30 7 -91 23 -134 34 -93 25 -83 23 -91 12z"/>
<path d="M2255 1620 c11 -5 27 -9 35 -9 9 0 8 4 -5 9 -11 5 -27 9 -35 9 -9 0
-8 -4 5 -9z"/>
<path d="M2318 1603 c7 -3 16 -2 19 1 4 3 -2 6 -13 5 -11 0 -14 -3 -6 -6z"/>
<path d="M2418 1573 c7 -3 16 -2 19 1 4 3 -2 6 -13 5 -11 0 -14 -3 -6 -6z"/>
<path d="M2480 1555 c19 -7 42 -13 50 -13 8 0 -1 6 -20 13 -19 7 -42 13 -50
13 -8 0 1 -6 20 -13z"/>
<path d="M5378 1563 c7 -3 16 -2 19 1 4 3 -2 6 -13 5 -11 0 -14 -3 -6 -6z"/>
<path d="M5438 1543 c7 -3 16 -2 19 1 4 3 -2 6 -13 5 -11 0 -14 -3 -6 -6z"/>
<path d="M2565 1530 c11 -5 27 -9 35 -9 9 0 8 4 -5 9 -11 5 -27 9 -35 9 -9 0
-8 -4 5 -9z"/>
<path d="M2665 1500 c11 -5 27 -9 35 -9 9 0 8 4 -5 9 -11 5 -27 9 -35 9 -9 0
-8 -4 5 -9z"/>
<path d="M2728 1483 c7 -3 16 -2 19 1 4 3 -2 6 -13 5 -11 0 -14 -3 -6 -6z"/>
<path d="M2828 1453 c7 -3 16 -2 19 1 4 3 -2 6 -13 5 -11 0 -14 -3 -6 -6z"/>
<path d="M2890 1435 c19 -7 42 -13 50 -13 8 0 -1 6 -20 13 -19 7 -42 13 -50
13 -8 0 1 -6 20 -13z"/>
<path d="M2975 1410 c11 -5 27 -9 35 -9 9 0 8 4 -5 9 -11 5 -27 9 -35 9 -9 0
-8 -4 5 -9z"/>
<path d="M3075 1380 c11 -5 27 -9 35 -9 9 0 8 4 -5 9 -11 5 -27 9 -35 9 -9 0
-8 -4 5 -9z"/>
<path d="M3138 1363 c7 -3 16 -2 19 1 4 3 -2 6 -13 5 -11 0 -14 -3 -6 -6z"/>
<path d="M3238 1333 c7 -3 16 -2 19 1 4 3 -2 6 -13 5 -11 0 -14 -3 -6 -6z"/>
<path d="M3300 1315 c19 -7 42 -13 50 -13 8 0 -1 6 -20 13 -19 7 -42 13 -50
13 -8 0 1 -6 20 -13z"/>
<path d="M3385 1290 c11 -5 27 -9 35 -9 9 0 8 4 -5 9 -11 5 -27 9 -35 9 -9 0
-8 -4 5 -9z"/>
<path d="M3485 1260 c11 -5 27 -9 35 -9 9 0 8 4 -5 9 -11 5 -27 9 -35 9 -9 0
-8 -4 5 -9z"/>
<path d="M3555 1240 c11 -5 27 -9 35 -9 9 0 8 4 -5 9 -11 5 -27 9 -35 9 -9 0
-8 -4 5 -9z"/>
<path d="M3648 1213 c7 -3 16 -2 19 1 4 3 -2 6 -13 5 -11 0 -14 -3 -6 -6z"/>
<path d="M3710 1195 c19 -7 42 -13 50 -13 8 0 -1 6 -20 13 -19 7 -42 13 -50
13 -8 0 1 -6 20 -13z"/>
<path d="M3795 1170 c11 -5 27 -9 35 -9 9 0 8 4 -5 9 -11 5 -27 9 -35 9 -9 0
-8 -4 5 -9z"/>
<path d="M6990 1170 c-9 -6 -10 -10 -3 -10 6 0 15 5 18 10 8 12 4 12 -15 0z"/>
<path d="M3895 1140 c11 -5 27 -9 35 -9 9 0 8 4 -5 9 -11 5 -27 9 -35 9 -9 0
-8 -4 5 -9z"/>
<path d="M6915 1140 c-13 -6 -15 -9 -5 -9 8 0 22 4 30 9 18 12 2 12 -25 0z"/>
<path d="M3980 1115 c19 -7 42 -13 50 -13 8 0 -1 6 -20 13 -19 7 -42 13 -50
13 -8 0 1 -6 20 -13z"/>
<path d="M6825 1110 c-13 -6 -15 -9 -5 -9 8 0 22 4 30 9 18 12 2 12 -25 0z"/>
<path d="M4058 1093 c7 -3 16 -2 19 1 4 3 -2 6 -13 5 -11 0 -14 -3 -6 -6z"/>
<path d="M4120 1075 c19 -7 42 -13 50 -13 8 0 -1 6 -20 13 -19 7 -42 13 -50
13 -8 0 1 -6 20 -13z"/>
<path d="M4220 1045 c19 -7 42 -13 50 -13 8 0 -1 6 -20 13 -19 7 -42 13 -50
13 -8 0 1 -6 20 -13z"/>
<path d="M6640 1050 c-18 -12 -2 -12 25 0 13 6 15 9 5 9 -8 0 -22 -4 -30 -9z"/>
<path d="M4305 1020 c11 -5 27 -9 35 -9 9 0 8 4 -5 9 -11 5 -27 9 -35 9 -9 0
-8 -4 5 -9z"/>
<path d="M6550 1020 c-18 -12 -2 -12 25 0 13 6 15 9 5 9 -8 0 -22 -4 -30 -9z"/>
<path d="M4375 1000 c11 -5 27 -9 35 -9 9 0 8 4 -5 9 -11 5 -27 9 -35 9 -9 0
-8 -4 5 -9z"/>
<path d="M6460 990 c-18 -12 -2 -12 25 0 13 6 15 9 5 9 -8 0 -22 -4 -30 -9z"/>
<path d="M4468 973 c7 -3 16 -2 19 1 4 3 -2 6 -13 5 -11 0 -14 -3 -6 -6z"/>
<path d="M6385 965 c-39 -17 -21 -18 25 0 19 7 28 14 20 14 -8 0 -28 -6 -45
-14z"/>
<path d="M4545 950 c11 -5 27 -9 35 -9 9 0 8 4 -5 9 -11 5 -27 9 -35 9 -9 0
-8 -4 5 -9z"/>
<path d="M6140 885 c-102 -35 -180 -64 -175 -64 6 -1 96 28 200 63 105 36 183
64 175 64 -8 0 -98 -28 -200 -63z"/>
<path d="M4630 925 c19 -7 42 -13 50 -13 8 0 -1 6 -20 13 -19 7 -42 13 -50 13
-8 0 1 -6 20 -13z"/>
<path d="M4715 900 c11 -5 27 -9 35 -9 9 0 8 4 -5 9 -11 5 -27 9 -35 9 -9 0
-8 -4 5 -9z"/>
<path d="M4800 875 c19 -7 42 -13 50 -13 8 0 -1 6 -20 13 -19 7 -42 13 -50 13
-8 0 1 -6 20 -13z"/>
<path d="M4878 853 c7 -3 16 -2 19 1 4 3 -2 6 -13 5 -11 0 -14 -3 -6 -6z"/>
<path d="M4940 835 c19 -7 42 -13 50 -13 8 0 -1 6 -20 13 -19 7 -42 13 -50 13
-8 0 1 -6 20 -13z"/>
<path d="M5025 810 c11 -5 29 -8 40 -8 16 0 15 2 -5 8 -34 11 -60 11 -35 0z"/>
<path d="M5900 810 c-20 -6 -21 -8 -5 -8 11 0 29 3 40 8 25 11 -1 11 -35 0z"/>
<path d="M5098 793 c6 -2 18 -2 25 0 6 3 1 5 -13 5 -14 0 -19 -2 -12 -5z"/>
<path d="M5780 789 c-25 -5 -144 -13 -265 -18 l-220 -9 225 4 c143 2 249 8
290 17 70 16 44 20 -30 6z"/>
<path d="M5175 780 c40 -9 122 -13 114 -6 -2 2 -38 6 -79 9 -56 4 -65 3 -35
-3z"/>
</g>
</svg>
